<svg xmlns="http://www.w3.org/2000/svg" width="1120" height="720" viewBox="0 0 1120 720" role="img">
<rect width="100%" height="100%" fill="#ffffff"/>
<style>text{font-family:Arial, Helvetica, sans-serif;}</style>
<defs>
  <linearGradient id="correlationGradient" x1="0" y1="1" x2="0" y2="0">
    <stop offset="0%" stop-color="#2166ac"/>
    <stop offset="50%" stop-color="#f7f7f7"/>
    <stop offset="100%" stop-color="#b2182b"/>
  </linearGradient>
</defs>
<text x="40.00" y="48.00" text-anchor="start" font-size="26" font-weight="700" fill="#111827">Dutch-auction parameter correlations</text>
<text x="40.00" y="76.00" text-anchor="start" font-size="15" font-weight="400" fill="#4b5563">Spearman rho across the 1,024-row WETH/USDC October 10 stress robustness sweep.</text>
<text x="40.00" y="100.00" text-anchor="start" font-size="13" font-weight="400" fill="#4b5563">Positive values move together; negative values move in opposite directions.</text>
<text x="265.71" y="114.00" text-anchor="middle" font-size="12" font-weight="700" fill="#4b5563" transform="rotate(-25.00 265.71 114.00)">LP uplift</text>
<text x="377.14" y="114.00" text-anchor="middle" font-size="12" font-weight="700" fill="#4b5563" transform="rotate(-25.00 377.14 114.00)">Recapture</text>
<text x="488.57" y="114.00" text-anchor="middle" font-size="12" font-weight="700" fill="#4b5563" transform="rotate(-25.00 488.57 114.00)">Clear rate</text>
<text x="600.00" y="114.00" text-anchor="middle" font-size="12" font-weight="700" fill="#4b5563" transform="rotate(-25.00 600.00 114.00)">Reprice</text>
<text x="711.43" y="114.00" text-anchor="middle" font-size="12" font-weight="700" fill="#4b5563" transform="rotate(-25.00 711.43 114.00)">No trade</text>
<text x="822.86" y="114.00" text-anchor="middle" font-size="12" font-weight="700" fill="#4b5563" transform="rotate(-25.00 822.86 114.00)">Stale time</text>
<text x="934.29" y="114.00" text-anchor="middle" font-size="12" font-weight="700" fill="#4b5563" transform="rotate(-25.00 934.29 114.00)">Better flag</text>
<text x="196.00" y="155.60" text-anchor="end" font-size="12" font-weight="700" fill="#4b5563">Base fee</text>
<rect x="210.00" y="128.00" width="111.43" height="47.20" fill="#d9959e" stroke="#ffffff" stroke-width="1.4"/>
<text x="265.71" y="155.60" text-anchor="middle" font-size="12" font-weight="700" fill="#111827">+0.44</text>
<rect x="321.43" y="128.00" width="111.43" height="47.20" fill="#d17d87" stroke="#ffffff" stroke-width="1.4"/>
<text x="377.14" y="155.60" text-anchor="middle" font-size="12" font-weight="700" fill="#111827">+0.55</text>
<rect x="432.86" y="128.00" width="111.43" height="47.20" fill="#e6ebf1" stroke="#ffffff" stroke-width="1.4"/>
<text x="488.57" y="155.60" text-anchor="middle" font-size="12" font-weight="700" fill="#111827">-0.08</text>
<rect x="544.29" y="128.00" width="111.43" height="47.20" fill="#b8cce1" stroke="#ffffff" stroke-width="1.4"/>
<text x="600.00" y="155.60" text-anchor="middle" font-size="12" font-weight="700" fill="#111827">-0.30</text>
<rect x="655.71" y="128.00" width="111.43" height="47.20" fill="#d8949c" stroke="#ffffff" stroke-width="1.4"/>
<text x="711.43" y="155.60" text-anchor="middle" font-size="12" font-weight="700" fill="#111827">+0.45</text>
<rect x="767.14" y="128.00" width="111.43" height="47.20" fill="#d9969e" stroke="#ffffff" stroke-width="1.4"/>
<text x="822.86" y="155.60" text-anchor="middle" font-size="12" font-weight="700" fill="#111827">+0.44</text>
<rect x="878.57" y="128.00" width="111.43" height="47.20" fill="#d8949c" stroke="#ffffff" stroke-width="1.4"/>
<text x="934.29" y="155.60" text-anchor="middle" font-size="12" font-weight="700" fill="#111827">+0.45</text>
<text x="196.00" y="202.80" text-anchor="end" font-size="12" font-weight="700" fill="#4b5563">Alpha</text>
<rect x="210.00" y="175.20" width="111.43" height="47.20" fill="#c85e6b" stroke="#ffffff" stroke-width="1.4"/>
<text x="265.71" y="202.80" text-anchor="middle" font-size="12" font-weight="700" fill="#ffffff">+0.69</text>
<rect x="321.43" y="175.20" width="111.43" height="47.20" fill="#c2d3e4" stroke="#ffffff" stroke-width="1.4"/>
<text x="377.14" y="202.80" text-anchor="middle" font-size="12" font-weight="700" fill="#111827">-0.25</text>
<rect x="432.86" y="175.20" width="111.43" height="47.20" fill="#b4c9df" stroke="#ffffff" stroke-width="1.4"/>
<text x="488.57" y="202.80" text-anchor="middle" font-size="12" font-weight="700" fill="#111827">-0.31</text>
<rect x="544.29" y="175.20" width="111.43" height="47.20" fill="#3c78b5" stroke="#ffffff" stroke-width="1.4"/>
<text x="600.00" y="202.80" text-anchor="middle" font-size="12" font-weight="700" fill="#ffffff">-0.87</text>
<rect x="655.71" y="175.20" width="111.43" height="47.20" fill="#bb3646" stroke="#ffffff" stroke-width="1.4"/>
<text x="711.43" y="202.80" text-anchor="middle" font-size="12" font-weight="700" fill="#ffffff">+0.87</text>
<rect x="767.14" y="175.20" width="111.43" height="47.20" fill="#bb3445" stroke="#ffffff" stroke-width="1.4"/>
<text x="822.86" y="202.80" text-anchor="middle" font-size="12" font-weight="700" fill="#ffffff">+0.87</text>
<rect x="878.57" y="175.20" width="111.43" height="47.20" fill="#e1b0b6" stroke="#ffffff" stroke-width="1.4"/>
<text x="934.29" y="202.80" text-anchor="middle" font-size="12" font-weight="700" fill="#111827">+0.32</text>
<text x="196.00" y="250.00" text-anchor="end" font-size="12" font-weight="700" fill="#4b5563">Start concession</text>
<rect x="210.00" y="222.40" width="111.43" height="47.20" fill="#f4f5f6" stroke="#ffffff" stroke-width="1.4"/>
<text x="265.71" y="250.00" text-anchor="middle" font-size="12" font-weight="700" fill="#111827">-0.01</text>
<rect x="321.43" y="222.40" width="111.43" height="47.20" fill="#f2f3f5" stroke="#ffffff" stroke-width="1.4"/>
<text x="377.14" y="250.00" text-anchor="middle" font-size="12" font-weight="700" fill="#111827">-0.03</text>
<rect x="432.86" y="222.40" width="111.43" height="47.20" fill="#f7f7f7" stroke="#ffffff" stroke-width="1.4"/>
<text x="488.57" y="250.00" text-anchor="middle" font-size="12" font-weight="700" fill="#111827">+0.00</text>
<rect x="544.29" y="222.40" width="111.43" height="47.20" fill="#f7f7f7" stroke="#ffffff" stroke-width="1.4"/>
<text x="600.00" y="250.00" text-anchor="middle" font-size="12" font-weight="700" fill="#111827">+0.00</text>
<rect x="655.71" y="222.40" width="111.43" height="47.20" fill="#f7f7f7" stroke="#ffffff" stroke-width="1.4"/>
<text x="711.43" y="250.00" text-anchor="middle" font-size="12" font-weight="700" fill="#111827">+0.00</text>
<rect x="767.14" y="222.40" width="111.43" height="47.20" fill="#f7f7f7" stroke="#ffffff" stroke-width="1.4"/>
<text x="822.86" y="250.00" text-anchor="middle" font-size="12" font-weight="700" fill="#111827">+0.00</text>
<rect x="878.57" y="222.40" width="111.43" height="47.20" fill="#f7f7f7" stroke="#ffffff" stroke-width="1.4"/>
<text x="934.29" y="250.00" text-anchor="middle" font-size="12" font-weight="700" fill="#111827">+0.00</text>
<text x="196.00" y="297.20" text-anchor="end" font-size="12" font-weight="700" fill="#4b5563">Concession growth</text>
<rect x="210.00" y="269.60" width="111.43" height="47.20" fill="#f6f5f5" stroke="#ffffff" stroke-width="1.4"/>
<text x="265.71" y="297.20" text-anchor="middle" font-size="12" font-weight="700" fill="#111827">+0.01</text>
<rect x="321.43" y="269.60" width="111.43" height="47.20" fill="#f5eff0" stroke="#ffffff" stroke-width="1.4"/>
<text x="377.14" y="297.20" text-anchor="middle" font-size="12" font-weight="700" fill="#111827">+0.03</text>
<rect x="432.86" y="269.60" width="111.43" height="47.20" fill="#f2e8e9" stroke="#ffffff" stroke-width="1.4"/>
<text x="488.57" y="297.20" text-anchor="middle" font-size="12" font-weight="700" fill="#111827">+0.07</text>
<rect x="544.29" y="269.60" width="111.43" height="47.20" fill="#f5f2f2" stroke="#ffffff" stroke-width="1.4"/>
<text x="600.00" y="297.20" text-anchor="middle" font-size="12" font-weight="700" fill="#111827">+0.02</text>
<rect x="655.71" y="269.60" width="111.43" height="47.20" fill="#f4f5f6" stroke="#ffffff" stroke-width="1.4"/>
<text x="711.43" y="297.20" text-anchor="middle" font-size="12" font-weight="700" fill="#111827">-0.01</text>
<rect x="767.14" y="269.60" width="111.43" height="47.20" fill="#f4f5f6" stroke="#ffffff" stroke-width="1.4"/>
<text x="822.86" y="297.20" text-anchor="middle" font-size="12" font-weight="700" fill="#111827">-0.01</text>
<rect x="878.57" y="269.60" width="111.43" height="47.20" fill="#f7f7f7" stroke="#ffffff" stroke-width="1.4"/>
<text x="934.29" y="297.20" text-anchor="middle" font-size="12" font-weight="700" fill="#111827">+0.00</text>
<text x="196.00" y="344.40" text-anchor="end" font-size="12" font-weight="700" fill="#4b5563">Quote floor</text>
<rect x="210.00" y="316.80" width="111.43" height="47.20" fill="#f6f5f5" stroke="#ffffff" stroke-width="1.4"/>
<text x="265.71" y="344.40" text-anchor="middle" font-size="12" font-weight="700" fill="#111827">+0.01</text>
<rect x="321.43" y="316.80" width="111.43" height="47.20" fill="#f5f2f2" stroke="#ffffff" stroke-width="1.4"/>
<text x="377.14" y="344.40" text-anchor="middle" font-size="12" font-weight="700" fill="#111827">+0.02</text>
<rect x="432.86" y="316.80" width="111.43" height="47.20" fill="#f7f7f7" stroke="#ffffff" stroke-width="1.4"/>
<text x="488.57" y="344.40" text-anchor="middle" font-size="12" font-weight="700" fill="#111827">+0.00</text>
<rect x="544.29" y="316.80" width="111.43" height="47.20" fill="#f4eff0" stroke="#ffffff" stroke-width="1.4"/>
<text x="600.00" y="344.40" text-anchor="middle" font-size="12" font-weight="700" fill="#111827">+0.04</text>
<rect x="655.71" y="316.80" width="111.43" height="47.20" fill="#ebeff3" stroke="#ffffff" stroke-width="1.4"/>
<text x="711.43" y="344.40" text-anchor="middle" font-size="12" font-weight="700" fill="#111827">-0.06</text>
<rect x="767.14" y="316.80" width="111.43" height="47.20" fill="#eff2f4" stroke="#ffffff" stroke-width="1.4"/>
<text x="822.86" y="344.40" text-anchor="middle" font-size="12" font-weight="700" fill="#111827">-0.04</text>
<rect x="878.57" y="316.80" width="111.43" height="47.20" fill="#f7f7f7" stroke="#ffffff" stroke-width="1.4"/>
<text x="934.29" y="344.40" text-anchor="middle" font-size="12" font-weight="700" fill="#111827">+0.00</text>
<text x="196.00" y="391.60" text-anchor="end" font-size="12" font-weight="700" fill="#4b5563">Max concession</text>
<rect x="210.00" y="364.00" width="111.43" height="47.20" fill="#f7f7f7" stroke="#ffffff" stroke-width="1.4"/>
<text x="265.71" y="391.60" text-anchor="middle" font-size="12" font-weight="700" fill="#111827">+0.00</text>
<rect x="321.43" y="364.00" width="111.43" height="47.20" fill="#f7f7f7" stroke="#ffffff" stroke-width="1.4"/>
<text x="377.14" y="391.60" text-anchor="middle" font-size="12" font-weight="700" fill="#111827">+0.00</text>
<rect x="432.86" y="364.00" width="111.43" height="47.20" fill="#f7f7f7" stroke="#ffffff" stroke-width="1.4"/>
<text x="488.57" y="391.60" text-anchor="middle" font-size="12" font-weight="700" fill="#111827">+0.00</text>
<rect x="544.29" y="364.00" width="111.43" height="47.20" fill="#f7f7f7" stroke="#ffffff" stroke-width="1.4"/>
<text x="600.00" y="391.60" text-anchor="middle" font-size="12" font-weight="700" fill="#111827">+0.00</text>
<rect x="655.71" y="364.00" width="111.43" height="47.20" fill="#f7f7f7" stroke="#ffffff" stroke-width="1.4"/>
<text x="711.43" y="391.60" text-anchor="middle" font-size="12" font-weight="700" fill="#111827">+0.00</text>
<rect x="767.14" y="364.00" width="111.43" height="47.20" fill="#f7f7f7" stroke="#ffffff" stroke-width="1.4"/>
<text x="822.86" y="391.60" text-anchor="middle" font-size="12" font-weight="700" fill="#111827">+0.00</text>
<rect x="878.57" y="364.00" width="111.43" height="47.20" fill="#f7f7f7" stroke="#ffffff" stroke-width="1.4"/>
<text x="934.29" y="391.60" text-anchor="middle" font-size="12" font-weight="700" fill="#111827">+0.00</text>
<text x="196.00" y="438.80" text-anchor="end" font-size="12" font-weight="700" fill="#4b5563">Duration</text>
<rect x="210.00" y="411.20" width="111.43" height="47.20" fill="#f6f5f5" stroke="#ffffff" stroke-width="1.4"/>
<text x="265.71" y="438.80" text-anchor="middle" font-size="12" font-weight="700" fill="#111827">+0.01</text>
<rect x="321.43" y="411.20" width="111.43" height="47.20" fill="#f5eff0" stroke="#ffffff" stroke-width="1.4"/>
<text x="377.14" y="438.80" text-anchor="middle" font-size="12" font-weight="700" fill="#111827">+0.03</text>
<rect x="432.86" y="411.20" width="111.43" height="47.20" fill="#f2e8e9" stroke="#ffffff" stroke-width="1.4"/>
<text x="488.57" y="438.80" text-anchor="middle" font-size="12" font-weight="700" fill="#111827">+0.07</text>
<rect x="544.29" y="411.20" width="111.43" height="47.20" fill="#d9e3ec" stroke="#ffffff" stroke-width="1.4"/>
<text x="600.00" y="438.80" text-anchor="middle" font-size="12" font-weight="700" fill="#111827">-0.14</text>
<rect x="655.71" y="411.20" width="111.43" height="47.20" fill="#f2e7e8" stroke="#ffffff" stroke-width="1.4"/>
<text x="711.43" y="438.80" text-anchor="middle" font-size="12" font-weight="700" fill="#111827">+0.07</text>
<rect x="767.14" y="411.20" width="111.43" height="47.20" fill="#f1e3e5" stroke="#ffffff" stroke-width="1.4"/>
<text x="822.86" y="438.80" text-anchor="middle" font-size="12" font-weight="700" fill="#111827">+0.09</text>
<rect x="878.57" y="411.20" width="111.43" height="47.20" fill="#f7f7f7" stroke="#ffffff" stroke-width="1.4"/>
<text x="934.29" y="438.80" text-anchor="middle" font-size="12" font-weight="700" fill="#111827">+0.00</text>
<text x="196.00" y="486.00" text-anchor="end" font-size="12" font-weight="700" fill="#4b5563">Solver gas</text>
<rect x="210.00" y="458.40" width="111.43" height="47.20" fill="#c7d6e6" stroke="#ffffff" stroke-width="1.4"/>
<text x="265.71" y="486.00" text-anchor="middle" font-size="12" font-weight="700" fill="#111827">-0.23</text>
<rect x="321.43" y="458.40" width="111.43" height="47.20" fill="#b1c8de" stroke="#ffffff" stroke-width="1.4"/>
<text x="377.14" y="486.00" text-anchor="middle" font-size="12" font-weight="700" fill="#111827">-0.33</text>
<rect x="432.86" y="458.40" width="111.43" height="47.20" fill="#adc5dd" stroke="#ffffff" stroke-width="1.4"/>
<text x="488.57" y="486.00" text-anchor="middle" font-size="12" font-weight="700" fill="#111827">-0.34</text>
<rect x="544.29" y="458.40" width="111.43" height="47.20" fill="#e0e7ef" stroke="#ffffff" stroke-width="1.4"/>
<text x="600.00" y="486.00" text-anchor="middle" font-size="12" font-weight="700" fill="#111827">-0.11</text>
<rect x="655.71" y="458.40" width="111.43" height="47.20" fill="#f2e8ea" stroke="#ffffff" stroke-width="1.4"/>
<text x="711.43" y="486.00" text-anchor="middle" font-size="12" font-weight="700" fill="#111827">+0.07</text>
<rect x="767.14" y="458.40" width="111.43" height="47.20" fill="#f3eaeb" stroke="#ffffff" stroke-width="1.4"/>
<text x="822.86" y="486.00" text-anchor="middle" font-size="12" font-weight="700" fill="#111827">+0.06</text>
<rect x="878.57" y="458.40" width="111.43" height="47.20" fill="#b3c9df" stroke="#ffffff" stroke-width="1.4"/>
<text x="934.29" y="486.00" text-anchor="middle" font-size="12" font-weight="700" fill="#111827">-0.32</text>
<text x="196.00" y="533.20" text-anchor="end" font-size="12" font-weight="700" fill="#4b5563">Solver edge</text>
<rect x="210.00" y="505.60" width="111.43" height="47.20" fill="#c2d3e5" stroke="#ffffff" stroke-width="1.4"/>
<text x="265.71" y="533.20" text-anchor="middle" font-size="12" font-weight="700" fill="#111827">-0.25</text>
<rect x="321.43" y="505.60" width="111.43" height="47.20" fill="#a2bed9" stroke="#ffffff" stroke-width="1.4"/>
<text x="377.14" y="533.20" text-anchor="middle" font-size="12" font-weight="700" fill="#111827">-0.40</text>
<rect x="432.86" y="505.60" width="111.43" height="47.20" fill="#91b2d3" stroke="#ffffff" stroke-width="1.4"/>
<text x="488.57" y="533.20" text-anchor="middle" font-size="12" font-weight="700" fill="#111827">-0.48</text>
<rect x="544.29" y="505.60" width="111.43" height="47.20" fill="#d6e1ec" stroke="#ffffff" stroke-width="1.4"/>
<text x="600.00" y="533.20" text-anchor="middle" font-size="12" font-weight="700" fill="#111827">-0.15</text>
<rect x="655.71" y="505.60" width="111.43" height="47.20" fill="#f1e3e4" stroke="#ffffff" stroke-width="1.4"/>
<text x="711.43" y="533.20" text-anchor="middle" font-size="12" font-weight="700" fill="#111827">+0.09</text>
<rect x="767.14" y="505.60" width="111.43" height="47.20" fill="#f1e4e6" stroke="#ffffff" stroke-width="1.4"/>
<text x="822.86" y="533.20" text-anchor="middle" font-size="12" font-weight="700" fill="#111827">+0.08</text>
<rect x="878.57" y="505.60" width="111.43" height="47.20" fill="#b3c9df" stroke="#ffffff" stroke-width="1.4"/>
<text x="934.29" y="533.20" text-anchor="middle" font-size="12" font-weight="700" fill="#111827">-0.32</text>
<text x="196.00" y="580.40" text-anchor="end" font-size="12" font-weight="700" fill="#4b5563">Reserve margin</text>
<rect x="210.00" y="552.80" width="111.43" height="47.20" fill="#f1f3f5" stroke="#ffffff" stroke-width="1.4"/>
<text x="265.71" y="580.40" text-anchor="middle" font-size="12" font-weight="700" fill="#111827">-0.03</text>
<rect x="321.43" y="552.80" width="111.43" height="47.20" fill="#e2e9f0" stroke="#ffffff" stroke-width="1.4"/>
<text x="377.14" y="580.40" text-anchor="middle" font-size="12" font-weight="700" fill="#111827">-0.10</text>
<rect x="432.86" y="552.80" width="111.43" height="47.20" fill="#e5ebf1" stroke="#ffffff" stroke-width="1.4"/>
<text x="488.57" y="580.40" text-anchor="middle" font-size="12" font-weight="700" fill="#111827">-0.08</text>
<rect x="544.29" y="552.80" width="111.43" height="47.20" fill="#f4f5f6" stroke="#ffffff" stroke-width="1.4"/>
<text x="600.00" y="580.40" text-anchor="middle" font-size="12" font-weight="700" fill="#111827">-0.01</text>
<rect x="655.71" y="552.80" width="111.43" height="47.20" fill="#f6f3f3" stroke="#ffffff" stroke-width="1.4"/>
<text x="711.43" y="580.40" text-anchor="middle" font-size="12" font-weight="700" fill="#111827">+0.02</text>
<rect x="767.14" y="552.80" width="111.43" height="47.20" fill="#f6f4f4" stroke="#ffffff" stroke-width="1.4"/>
<text x="822.86" y="580.40" text-anchor="middle" font-size="12" font-weight="700" fill="#111827">+0.01</text>
<rect x="878.57" y="552.80" width="111.43" height="47.20" fill="#e9eef2" stroke="#ffffff" stroke-width="1.4"/>
<text x="934.29" y="580.40" text-anchor="middle" font-size="12" font-weight="700" fill="#111827">-0.06</text>
<rect x="210" y="128" width="780" height="472" fill="none" stroke="#9ca3af" stroke-width="1"/>
<rect x="1028" y="136" width="22" height="456" fill="url(#correlationGradient)" stroke="#d1d5db"/>
<line x1="1050" y1="136.00" x2="1058" y2="136.00" stroke="#9ca3af"/>
<text x="1063.00" y="140.00" text-anchor="start" font-size="11" font-weight="400" fill="#4b5563">+1.0</text>
<line x1="1050" y1="250.00" x2="1058" y2="250.00" stroke="#9ca3af"/>
<text x="1063.00" y="254.00" text-anchor="start" font-size="11" font-weight="400" fill="#4b5563">+0.5</text>
<line x1="1050" y1="364.00" x2="1058" y2="364.00" stroke="#9ca3af"/>
<text x="1063.00" y="368.00" text-anchor="start" font-size="11" font-weight="400" fill="#4b5563">+0.0</text>
<line x1="1050" y1="478.00" x2="1058" y2="478.00" stroke="#9ca3af"/>
<text x="1063.00" y="482.00" text-anchor="start" font-size="11" font-weight="400" fill="#4b5563">-0.5</text>
<line x1="1050" y1="592.00" x2="1058" y2="592.00" stroke="#9ca3af"/>
<text x="1063.00" y="596.00" text-anchor="start" font-size="11" font-weight="400" fill="#4b5563">-1.0</text>
<text x="1023.00" y="122.00" text-anchor="start" font-size="12" font-weight="700" fill="#4b5563">rho</text>
</svg>