<svg xmlns="http://www.w3.org/2000/svg" width="1280" height="930" viewBox="0 0 1280 930" role="img">
<rect width="100%" height="100%" fill="#ffffff"/>
<style>text{font-family:Arial, Helvetica, sans-serif;}</style>
<defs>
  <linearGradient id="recaptureGradient" x1="0" y1="1" x2="0" y2="0">
    <stop offset="0%" stop-color="#b2182b"/>
    <stop offset="50%" stop-color="#fdae61"/>
    <stop offset="80%" stop-color="#ffffbf"/>
    <stop offset="95%" stop-color="#a6d96a"/>
    <stop offset="100%" stop-color="#1a9850"/>
  </linearGradient>
</defs>
<text x="40.00" y="48.00" text-anchor="start" font-size="26" font-weight="700" fill="#111827">Launch-policy recapture across USD floors and trigger thresholds</text>
<text x="40.00" y="76.00" text-anchor="start" font-size="15" font-weight="400" fill="#4b5563">Color shows gross LVR recaptured over the October 2025 month run. Each panel aggregates 31 windows.</text>
<text x="90.00" y="105.00" text-anchor="start" font-size="19" font-weight="700" fill="#111827">WETH/USDC</text>
<text x="363.00" y="131.00" text-anchor="middle" font-size="12" font-weight="400" fill="#4b5563">Minimum stale-loss floor (USD)</text>
<text x="208.83" y="145.00" text-anchor="middle" font-size="11" font-weight="400" fill="#4b5563">$0</text>
<text x="270.50" y="145.00" text-anchor="middle" font-size="11" font-weight="400" fill="#4b5563">$0.5</text>
<text x="332.17" y="145.00" text-anchor="middle" font-size="11" font-weight="400" fill="#4b5563">$1</text>
<text x="393.83" y="145.00" text-anchor="middle" font-size="11" font-weight="400" fill="#4b5563">$5</text>
<text x="455.50" y="145.00" text-anchor="middle" font-size="11" font-weight="400" fill="#4b5563">$25</text>
<text x="517.17" y="145.00" text-anchor="middle" font-size="11" font-weight="400" fill="#4b5563">$100</text>
<text x="166.00" y="172.00" text-anchor="end" font-size="11" font-weight="400" fill="#4b5563">0</text>
<text x="166.00" y="202.00" text-anchor="end" font-size="11" font-weight="400" fill="#4b5563">5</text>
<text x="166.00" y="232.00" text-anchor="end" font-size="11" font-weight="400" fill="#4b5563">10</text>
<text x="166.00" y="262.00" text-anchor="end" font-size="11" font-weight="400" fill="#4b5563">25</text>
<text x="166.00" y="292.00" text-anchor="end" font-size="11" font-weight="400" fill="#4b5563">50</text>
<text x="166.00" y="322.00" text-anchor="end" font-size="11" font-weight="400" fill="#4b5563">100</text>
<text x="166.00" y="352.00" text-anchor="end" font-size="11" font-weight="400" fill="#4b5563">200</text>
<text x="106.00" y="258.00" text-anchor="middle" font-size="12" font-weight="400" fill="#4b5563" transform="rotate(-90.00 106.00 258.00)">Trigger threshold (bps)</text>
<rect x="178.00" y="153.00" width="61.67" height="30.00" fill="#b9e17c" stroke="#ffffff" stroke-width="1.5"/>
<text x="208.83" y="172.00" text-anchor="middle" font-size="11" font-weight="400" fill="#111827">91.8</text>
<rect x="239.67" y="153.00" width="61.67" height="30.00" fill="#b9e17c" stroke="#ffffff" stroke-width="1.5"/>
<text x="270.50" y="172.00" text-anchor="middle" font-size="11" font-weight="400" fill="#111827">91.8</text>
<rect x="301.33" y="153.00" width="61.67" height="30.00" fill="#b9e17c" stroke="#ffffff" stroke-width="1.5"/>
<text x="332.17" y="172.00" text-anchor="middle" font-size="11" font-weight="400" fill="#111827">91.8</text>
<rect x="363.00" y="153.00" width="61.67" height="30.00" fill="#b9e17c" stroke="#ffffff" stroke-width="1.5"/>
<text x="393.83" y="172.00" text-anchor="middle" font-size="11" font-weight="400" fill="#111827">91.8</text>
<rect x="424.67" y="153.00" width="61.67" height="30.00" fill="#b9e17c" stroke="#ffffff" stroke-width="1.5"/>
<text x="455.50" y="172.00" text-anchor="middle" font-size="11" font-weight="400" fill="#111827">91.8</text>
<rect x="486.33" y="153.00" width="61.67" height="30.00" fill="#bae17d" stroke="#ffffff" stroke-width="1.5"/>
<text x="517.17" y="172.00" text-anchor="middle" font-size="11" font-weight="400" fill="#111827">91.7</text>
<rect x="178.00" y="183.00" width="61.67" height="30.00" fill="#c4e687" stroke="#ffffff" stroke-width="1.5"/>
<text x="208.83" y="202.00" text-anchor="middle" font-size="11" font-weight="400" fill="#111827">89.9</text>
<rect x="239.67" y="183.00" width="61.67" height="30.00" fill="#c4e687" stroke="#ffffff" stroke-width="1.5"/>
<text x="270.50" y="202.00" text-anchor="middle" font-size="11" font-weight="400" fill="#111827">89.9</text>
<rect x="301.33" y="183.00" width="61.67" height="30.00" fill="#c4e687" stroke="#ffffff" stroke-width="1.5"/>
<text x="332.17" y="202.00" text-anchor="middle" font-size="11" font-weight="400" fill="#111827">89.9</text>
<rect x="363.00" y="183.00" width="61.67" height="30.00" fill="#c4e687" stroke="#ffffff" stroke-width="1.5"/>
<text x="393.83" y="202.00" text-anchor="middle" font-size="11" font-weight="400" fill="#111827">89.9</text>
<rect x="424.67" y="183.00" width="61.67" height="30.00" fill="#c4e687" stroke="#ffffff" stroke-width="1.5"/>
<text x="455.50" y="202.00" text-anchor="middle" font-size="11" font-weight="400" fill="#111827">89.9</text>
<rect x="486.33" y="183.00" width="61.67" height="30.00" fill="#c5e688" stroke="#ffffff" stroke-width="1.5"/>
<text x="517.17" y="202.00" text-anchor="middle" font-size="11" font-weight="400" fill="#111827">89.8</text>
<rect x="178.00" y="213.00" width="61.67" height="30.00" fill="#cbe98d" stroke="#ffffff" stroke-width="1.5"/>
<text x="208.83" y="232.00" text-anchor="middle" font-size="11" font-weight="400" fill="#111827">88.8</text>
<rect x="239.67" y="213.00" width="61.67" height="30.00" fill="#cbe98d" stroke="#ffffff" stroke-width="1.5"/>
<text x="270.50" y="232.00" text-anchor="middle" font-size="11" font-weight="400" fill="#111827">88.8</text>
<rect x="301.33" y="213.00" width="61.67" height="30.00" fill="#cbe98d" stroke="#ffffff" stroke-width="1.5"/>
<text x="332.17" y="232.00" text-anchor="middle" font-size="11" font-weight="400" fill="#111827">88.8</text>
<rect x="363.00" y="213.00" width="61.67" height="30.00" fill="#cbe98d" stroke="#ffffff" stroke-width="1.5"/>
<text x="393.83" y="232.00" text-anchor="middle" font-size="11" font-weight="400" fill="#111827">88.8</text>
<rect x="424.67" y="213.00" width="61.67" height="30.00" fill="#cbe98d" stroke="#ffffff" stroke-width="1.5"/>
<text x="455.50" y="232.00" text-anchor="middle" font-size="11" font-weight="400" fill="#111827">88.8</text>
<rect x="486.33" y="213.00" width="61.67" height="30.00" fill="#cbe98e" stroke="#ffffff" stroke-width="1.5"/>
<text x="517.17" y="232.00" text-anchor="middle" font-size="11" font-weight="400" fill="#111827">88.7</text>
<rect x="178.00" y="243.00" width="61.67" height="30.00" fill="#def1a0" stroke="#ffffff" stroke-width="1.5"/>
<text x="208.83" y="262.00" text-anchor="middle" font-size="11" font-weight="400" fill="#111827">85.5</text>
<rect x="239.67" y="243.00" width="61.67" height="30.00" fill="#def1a0" stroke="#ffffff" stroke-width="1.5"/>
<text x="270.50" y="262.00" text-anchor="middle" font-size="11" font-weight="400" fill="#111827">85.5</text>
<rect x="301.33" y="243.00" width="61.67" height="30.00" fill="#def1a0" stroke="#ffffff" stroke-width="1.5"/>
<text x="332.17" y="262.00" text-anchor="middle" font-size="11" font-weight="400" fill="#111827">85.5</text>
<rect x="363.00" y="243.00" width="61.67" height="30.00" fill="#def1a0" stroke="#ffffff" stroke-width="1.5"/>
<text x="393.83" y="262.00" text-anchor="middle" font-size="11" font-weight="400" fill="#111827">85.5</text>
<rect x="424.67" y="243.00" width="61.67" height="30.00" fill="#def1a0" stroke="#ffffff" stroke-width="1.5"/>
<text x="455.50" y="262.00" text-anchor="middle" font-size="11" font-weight="400" fill="#111827">85.5</text>
<rect x="486.33" y="243.00" width="61.67" height="30.00" fill="#dff1a0" stroke="#ffffff" stroke-width="1.5"/>
<text x="517.17" y="262.00" text-anchor="middle" font-size="11" font-weight="400" fill="#111827">85.5</text>
<rect x="178.00" y="273.00" width="61.67" height="30.00" fill="#f8fcb8" stroke="#ffffff" stroke-width="1.5"/>
<text x="208.83" y="292.00" text-anchor="middle" font-size="11" font-weight="400" fill="#111827">81.2</text>
<rect x="239.67" y="273.00" width="61.67" height="30.00" fill="#f8fcb8" stroke="#ffffff" stroke-width="1.5"/>
<text x="270.50" y="292.00" text-anchor="middle" font-size="11" font-weight="400" fill="#111827">81.2</text>
<rect x="301.33" y="273.00" width="61.67" height="30.00" fill="#f8fcb8" stroke="#ffffff" stroke-width="1.5"/>
<text x="332.17" y="292.00" text-anchor="middle" font-size="11" font-weight="400" fill="#111827">81.2</text>
<rect x="363.00" y="273.00" width="61.67" height="30.00" fill="#f8fcb8" stroke="#ffffff" stroke-width="1.5"/>
<text x="393.83" y="292.00" text-anchor="middle" font-size="11" font-weight="400" fill="#111827">81.2</text>
<rect x="424.67" y="273.00" width="61.67" height="30.00" fill="#f8fcb8" stroke="#ffffff" stroke-width="1.5"/>
<text x="455.50" y="292.00" text-anchor="middle" font-size="11" font-weight="400" fill="#111827">81.2</text>
<rect x="486.33" y="273.00" width="61.67" height="30.00" fill="#f8fcb8" stroke="#ffffff" stroke-width="1.5"/>
<text x="517.17" y="292.00" text-anchor="middle" font-size="11" font-weight="400" fill="#111827">81.2</text>
<rect x="178.00" y="303.00" width="61.67" height="30.00" fill="#ca493c" stroke="#ffffff" stroke-width="1.5"/>
<text x="208.83" y="322.00" text-anchor="middle" font-size="11" font-weight="400" fill="#ffffff">16.2</text>
<rect x="239.67" y="303.00" width="61.67" height="30.00" fill="#ca493c" stroke="#ffffff" stroke-width="1.5"/>
<text x="270.50" y="322.00" text-anchor="middle" font-size="11" font-weight="400" fill="#ffffff">16.2</text>
<rect x="301.33" y="303.00" width="61.67" height="30.00" fill="#ca493c" stroke="#ffffff" stroke-width="1.5"/>
<text x="332.17" y="322.00" text-anchor="middle" font-size="11" font-weight="400" fill="#ffffff">16.2</text>
<rect x="363.00" y="303.00" width="61.67" height="30.00" fill="#ca493c" stroke="#ffffff" stroke-width="1.5"/>
<text x="393.83" y="322.00" text-anchor="middle" font-size="11" font-weight="400" fill="#ffffff">16.2</text>
<rect x="424.67" y="303.00" width="61.67" height="30.00" fill="#ca493c" stroke="#ffffff" stroke-width="1.5"/>
<text x="455.50" y="322.00" text-anchor="middle" font-size="11" font-weight="400" fill="#ffffff">16.2</text>
<rect x="486.33" y="303.00" width="61.67" height="30.00" fill="#ca493c" stroke="#ffffff" stroke-width="1.5"/>
<text x="517.17" y="322.00" text-anchor="middle" font-size="11" font-weight="400" fill="#ffffff">16.2</text>
<rect x="178.00" y="333.00" width="61.67" height="30.00" fill="#bb2a31" stroke="#ffffff" stroke-width="1.5"/>
<text x="208.83" y="352.00" text-anchor="middle" font-size="11" font-weight="400" fill="#ffffff">5.9</text>
<rect x="239.67" y="333.00" width="61.67" height="30.00" fill="#bb2a31" stroke="#ffffff" stroke-width="1.5"/>
<text x="270.50" y="352.00" text-anchor="middle" font-size="11" font-weight="400" fill="#ffffff">5.9</text>
<rect x="301.33" y="333.00" width="61.67" height="30.00" fill="#bb2a31" stroke="#ffffff" stroke-width="1.5"/>
<text x="332.17" y="352.00" text-anchor="middle" font-size="11" font-weight="400" fill="#ffffff">5.9</text>
<rect x="363.00" y="333.00" width="61.67" height="30.00" fill="#bb2a31" stroke="#ffffff" stroke-width="1.5"/>
<text x="393.83" y="352.00" text-anchor="middle" font-size="11" font-weight="400" fill="#ffffff">5.9</text>
<rect x="424.67" y="333.00" width="61.67" height="30.00" fill="#bb2a31" stroke="#ffffff" stroke-width="1.5"/>
<text x="455.50" y="352.00" text-anchor="middle" font-size="11" font-weight="400" fill="#ffffff">5.9</text>
<rect x="486.33" y="333.00" width="61.67" height="30.00" fill="#bb2a31" stroke="#ffffff" stroke-width="1.5"/>
<text x="517.17" y="352.00" text-anchor="middle" font-size="11" font-weight="400" fill="#ffffff">5.9</text>
<rect x="178.00" y="153.00" width="370.00" height="210.00" fill="none" stroke="#9ca3af" stroke-width="1"/>
<text x="715.00" y="105.00" text-anchor="start" font-size="19" font-weight="700" fill="#111827">WBTC/USDC</text>
<text x="988.00" y="131.00" text-anchor="middle" font-size="12" font-weight="400" fill="#4b5563">Minimum stale-loss floor (USD)</text>
<text x="833.83" y="145.00" text-anchor="middle" font-size="11" font-weight="400" fill="#4b5563">$0</text>
<text x="895.50" y="145.00" text-anchor="middle" font-size="11" font-weight="400" fill="#4b5563">$0.5</text>
<text x="957.17" y="145.00" text-anchor="middle" font-size="11" font-weight="400" fill="#4b5563">$1</text>
<text x="1018.83" y="145.00" text-anchor="middle" font-size="11" font-weight="400" fill="#4b5563">$5</text>
<text x="1080.50" y="145.00" text-anchor="middle" font-size="11" font-weight="400" fill="#4b5563">$25</text>
<text x="1142.17" y="145.00" text-anchor="middle" font-size="11" font-weight="400" fill="#4b5563">$100</text>
<text x="791.00" y="172.00" text-anchor="end" font-size="11" font-weight="400" fill="#4b5563">0</text>
<text x="791.00" y="202.00" text-anchor="end" font-size="11" font-weight="400" fill="#4b5563">5</text>
<text x="791.00" y="232.00" text-anchor="end" font-size="11" font-weight="400" fill="#4b5563">10</text>
<text x="791.00" y="262.00" text-anchor="end" font-size="11" font-weight="400" fill="#4b5563">25</text>
<text x="791.00" y="292.00" text-anchor="end" font-size="11" font-weight="400" fill="#4b5563">50</text>
<text x="791.00" y="322.00" text-anchor="end" font-size="11" font-weight="400" fill="#4b5563">100</text>
<text x="791.00" y="352.00" text-anchor="end" font-size="11" font-weight="400" fill="#4b5563">200</text>
<text x="731.00" y="258.00" text-anchor="middle" font-size="12" font-weight="400" fill="#4b5563" transform="rotate(-90.00 731.00 258.00)">Trigger threshold (bps)</text>
<rect x="803.00" y="153.00" width="61.67" height="30.00" fill="#b7e07b" stroke="#ffffff" stroke-width="1.5"/>
<text x="833.83" y="172.00" text-anchor="middle" font-size="11" font-weight="400" fill="#ffffff">92.1</text>
<rect x="864.67" y="153.00" width="61.67" height="30.00" fill="#b7e07b" stroke="#ffffff" stroke-width="1.5"/>
<text x="895.50" y="172.00" text-anchor="middle" font-size="11" font-weight="400" fill="#ffffff">92.1</text>
<rect x="926.33" y="153.00" width="61.67" height="30.00" fill="#b8e07b" stroke="#ffffff" stroke-width="1.5"/>
<text x="957.17" y="172.00" text-anchor="middle" font-size="11" font-weight="400" fill="#ffffff">92.0</text>
<rect x="988.00" y="153.00" width="61.67" height="30.00" fill="#b9e17c" stroke="#ffffff" stroke-width="1.5"/>
<text x="1018.83" y="172.00" text-anchor="middle" font-size="11" font-weight="400" fill="#111827">91.7</text>
<rect x="1049.67" y="153.00" width="61.67" height="30.00" fill="#c7e78a" stroke="#ffffff" stroke-width="1.5"/>
<text x="1080.50" y="172.00" text-anchor="middle" font-size="11" font-weight="400" fill="#111827">89.4</text>
<rect x="1111.33" y="153.00" width="61.67" height="30.00" fill="#fff7b6" stroke="#ffffff" stroke-width="1.5"/>
<text x="1142.17" y="172.00" text-anchor="middle" font-size="11" font-weight="400" fill="#111827">77.0</text>
<rect x="803.00" y="183.00" width="61.67" height="30.00" fill="#c7e78a" stroke="#ffffff" stroke-width="1.5"/>
<text x="833.83" y="202.00" text-anchor="middle" font-size="11" font-weight="400" fill="#111827">89.4</text>
<rect x="864.67" y="183.00" width="61.67" height="30.00" fill="#c7e78a" stroke="#ffffff" stroke-width="1.5"/>
<text x="895.50" y="202.00" text-anchor="middle" font-size="11" font-weight="400" fill="#111827">89.4</text>
<rect x="926.33" y="183.00" width="61.67" height="30.00" fill="#c7e78a" stroke="#ffffff" stroke-width="1.5"/>
<text x="957.17" y="202.00" text-anchor="middle" font-size="11" font-weight="400" fill="#111827">89.4</text>
<rect x="988.00" y="183.00" width="61.67" height="30.00" fill="#c9e88b" stroke="#ffffff" stroke-width="1.5"/>
<text x="1018.83" y="202.00" text-anchor="middle" font-size="11" font-weight="400" fill="#111827">89.1</text>
<rect x="1049.67" y="183.00" width="61.67" height="30.00" fill="#d6ee98" stroke="#ffffff" stroke-width="1.5"/>
<text x="1080.50" y="202.00" text-anchor="middle" font-size="11" font-weight="400" fill="#111827">86.9</text>
<rect x="1111.33" y="183.00" width="61.67" height="30.00" fill="#fff1ae" stroke="#ffffff" stroke-width="1.5"/>
<text x="1142.17" y="202.00" text-anchor="middle" font-size="11" font-weight="400" fill="#111827">74.7</text>
<rect x="803.00" y="213.00" width="61.67" height="30.00" fill="#d3ec95" stroke="#ffffff" stroke-width="1.5"/>
<text x="833.83" y="232.00" text-anchor="middle" font-size="11" font-weight="400" fill="#111827">87.4</text>
<rect x="864.67" y="213.00" width="61.67" height="30.00" fill="#d3ec95" stroke="#ffffff" stroke-width="1.5"/>
<text x="895.50" y="232.00" text-anchor="middle" font-size="11" font-weight="400" fill="#111827">87.4</text>
<rect x="926.33" y="213.00" width="61.67" height="30.00" fill="#d3ec95" stroke="#ffffff" stroke-width="1.5"/>
<text x="957.17" y="232.00" text-anchor="middle" font-size="11" font-weight="400" fill="#111827">87.4</text>
<rect x="988.00" y="213.00" width="61.67" height="30.00" fill="#d4ec96" stroke="#ffffff" stroke-width="1.5"/>
<text x="1018.83" y="232.00" text-anchor="middle" font-size="11" font-weight="400" fill="#111827">87.3</text>
<rect x="1049.67" y="213.00" width="61.67" height="30.00" fill="#e1f2a2" stroke="#ffffff" stroke-width="1.5"/>
<text x="1080.50" y="232.00" text-anchor="middle" font-size="11" font-weight="400" fill="#111827">85.1</text>
<rect x="1111.33" y="213.00" width="61.67" height="30.00" fill="#ffedaa" stroke="#ffffff" stroke-width="1.5"/>
<text x="1142.17" y="232.00" text-anchor="middle" font-size="11" font-weight="400" fill="#111827">73.5</text>
<rect x="803.00" y="243.00" width="61.67" height="30.00" fill="#ffffbf" stroke="#ffffff" stroke-width="1.5"/>
<text x="833.83" y="262.00" text-anchor="middle" font-size="11" font-weight="400" fill="#111827">80.1</text>
<rect x="864.67" y="243.00" width="61.67" height="30.00" fill="#ffffbf" stroke="#ffffff" stroke-width="1.5"/>
<text x="895.50" y="262.00" text-anchor="middle" font-size="11" font-weight="400" fill="#111827">80.1</text>
<rect x="926.33" y="243.00" width="61.67" height="30.00" fill="#ffffbf" stroke="#ffffff" stroke-width="1.5"/>
<text x="957.17" y="262.00" text-anchor="middle" font-size="11" font-weight="400" fill="#111827">80.1</text>
<rect x="988.00" y="243.00" width="61.67" height="30.00" fill="#ffffbf" stroke="#ffffff" stroke-width="1.5"/>
<text x="1018.83" y="262.00" text-anchor="middle" font-size="11" font-weight="400" fill="#111827">80.1</text>
<rect x="1049.67" y="243.00" width="61.67" height="30.00" fill="#ffffbe" stroke="#ffffff" stroke-width="1.5"/>
<text x="1080.50" y="262.00" text-anchor="middle" font-size="11" font-weight="400" fill="#111827">79.8</text>
<rect x="1111.33" y="243.00" width="61.67" height="30.00" fill="#fee19c" stroke="#ffffff" stroke-width="1.5"/>
<text x="1142.17" y="262.00" text-anchor="middle" font-size="11" font-weight="400" fill="#111827">69.0</text>
<rect x="803.00" y="273.00" width="61.67" height="30.00" fill="#fedd97" stroke="#ffffff" stroke-width="1.5"/>
<text x="833.83" y="292.00" text-anchor="middle" font-size="11" font-weight="400" fill="#111827">67.2</text>
<rect x="864.67" y="273.00" width="61.67" height="30.00" fill="#fedd97" stroke="#ffffff" stroke-width="1.5"/>
<text x="895.50" y="292.00" text-anchor="middle" font-size="11" font-weight="400" fill="#111827">67.2</text>
<rect x="926.33" y="273.00" width="61.67" height="30.00" fill="#fedd97" stroke="#ffffff" stroke-width="1.5"/>
<text x="957.17" y="292.00" text-anchor="middle" font-size="11" font-weight="400" fill="#111827">67.2</text>
<rect x="988.00" y="273.00" width="61.67" height="30.00" fill="#fedd97" stroke="#ffffff" stroke-width="1.5"/>
<text x="1018.83" y="292.00" text-anchor="middle" font-size="11" font-weight="400" fill="#111827">67.2</text>
<rect x="1049.67" y="273.00" width="61.67" height="30.00" fill="#fedc97" stroke="#ffffff" stroke-width="1.5"/>
<text x="1080.50" y="292.00" text-anchor="middle" font-size="11" font-weight="400" fill="#111827">67.2</text>
<rect x="1111.33" y="273.00" width="61.67" height="30.00" fill="#fed088" stroke="#ffffff" stroke-width="1.5"/>
<text x="1142.17" y="292.00" text-anchor="middle" font-size="11" font-weight="400" fill="#ffffff">62.4</text>
<rect x="803.00" y="303.00" width="61.67" height="30.00" fill="#c33937" stroke="#ffffff" stroke-width="1.5"/>
<text x="833.83" y="322.00" text-anchor="middle" font-size="11" font-weight="400" fill="#ffffff">11.1</text>
<rect x="864.67" y="303.00" width="61.67" height="30.00" fill="#c33937" stroke="#ffffff" stroke-width="1.5"/>
<text x="895.50" y="322.00" text-anchor="middle" font-size="11" font-weight="400" fill="#ffffff">11.1</text>
<rect x="926.33" y="303.00" width="61.67" height="30.00" fill="#c33937" stroke="#ffffff" stroke-width="1.5"/>
<text x="957.17" y="322.00" text-anchor="middle" font-size="11" font-weight="400" fill="#ffffff">11.1</text>
<rect x="988.00" y="303.00" width="61.67" height="30.00" fill="#c33937" stroke="#ffffff" stroke-width="1.5"/>
<text x="1018.83" y="322.00" text-anchor="middle" font-size="11" font-weight="400" fill="#ffffff">11.1</text>
<rect x="1049.67" y="303.00" width="61.67" height="30.00" fill="#c33937" stroke="#ffffff" stroke-width="1.5"/>
<text x="1080.50" y="322.00" text-anchor="middle" font-size="11" font-weight="400" fill="#ffffff">11.1</text>
<rect x="1111.33" y="303.00" width="61.67" height="30.00" fill="#c33937" stroke="#ffffff" stroke-width="1.5"/>
<text x="1142.17" y="322.00" text-anchor="middle" font-size="11" font-weight="400" fill="#ffffff">11.1</text>
<rect x="803.00" y="333.00" width="61.67" height="30.00" fill="#bb2b32" stroke="#ffffff" stroke-width="1.5"/>
<text x="833.83" y="352.00" text-anchor="middle" font-size="11" font-weight="400" fill="#ffffff">6.2</text>
<rect x="864.67" y="333.00" width="61.67" height="30.00" fill="#bb2b32" stroke="#ffffff" stroke-width="1.5"/>
<text x="895.50" y="352.00" text-anchor="middle" font-size="11" font-weight="400" fill="#ffffff">6.2</text>
<rect x="926.33" y="333.00" width="61.67" height="30.00" fill="#bb2b32" stroke="#ffffff" stroke-width="1.5"/>
<text x="957.17" y="352.00" text-anchor="middle" font-size="11" font-weight="400" fill="#ffffff">6.2</text>
<rect x="988.00" y="333.00" width="61.67" height="30.00" fill="#bb2b32" stroke="#ffffff" stroke-width="1.5"/>
<text x="1018.83" y="352.00" text-anchor="middle" font-size="11" font-weight="400" fill="#ffffff">6.2</text>
<rect x="1049.67" y="333.00" width="61.67" height="30.00" fill="#bb2b32" stroke="#ffffff" stroke-width="1.5"/>
<text x="1080.50" y="352.00" text-anchor="middle" font-size="11" font-weight="400" fill="#ffffff">6.2</text>
<rect x="1111.33" y="333.00" width="61.67" height="30.00" fill="#bb2b32" stroke="#ffffff" stroke-width="1.5"/>
<text x="1142.17" y="352.00" text-anchor="middle" font-size="11" font-weight="400" fill="#ffffff">6.2</text>
<rect x="803.00" y="153.00" width="370.00" height="210.00" fill="none" stroke="#9ca3af" stroke-width="1"/>
<text x="90.00" y="525.00" text-anchor="start" font-size="19" font-weight="700" fill="#111827">LINK/WETH</text>
<text x="363.00" y="551.00" text-anchor="middle" font-size="12" font-weight="400" fill="#4b5563">Minimum stale-loss floor (USD)</text>
<text x="208.83" y="565.00" text-anchor="middle" font-size="11" font-weight="400" fill="#4b5563">$0</text>
<text x="270.50" y="565.00" text-anchor="middle" font-size="11" font-weight="400" fill="#4b5563">$0.5</text>
<text x="332.17" y="565.00" text-anchor="middle" font-size="11" font-weight="400" fill="#4b5563">$1</text>
<text x="393.83" y="565.00" text-anchor="middle" font-size="11" font-weight="400" fill="#4b5563">$5</text>
<text x="455.50" y="565.00" text-anchor="middle" font-size="11" font-weight="400" fill="#4b5563">$25</text>
<text x="517.17" y="565.00" text-anchor="middle" font-size="11" font-weight="400" fill="#4b5563">$100</text>
<text x="166.00" y="592.00" text-anchor="end" font-size="11" font-weight="400" fill="#4b5563">0</text>
<text x="166.00" y="622.00" text-anchor="end" font-size="11" font-weight="400" fill="#4b5563">5</text>
<text x="166.00" y="652.00" text-anchor="end" font-size="11" font-weight="400" fill="#4b5563">10</text>
<text x="166.00" y="682.00" text-anchor="end" font-size="11" font-weight="400" fill="#4b5563">25</text>
<text x="166.00" y="712.00" text-anchor="end" font-size="11" font-weight="400" fill="#4b5563">50</text>
<text x="166.00" y="742.00" text-anchor="end" font-size="11" font-weight="400" fill="#4b5563">100</text>
<text x="166.00" y="772.00" text-anchor="end" font-size="11" font-weight="400" fill="#4b5563">200</text>
<text x="106.00" y="678.00" text-anchor="middle" font-size="12" font-weight="400" fill="#4b5563" transform="rotate(-90.00 106.00 678.00)">Trigger threshold (bps)</text>
<rect x="178.00" y="573.00" width="61.67" height="30.00" fill="#1c9950" stroke="#ffffff" stroke-width="1.5"/>
<text x="208.83" y="592.00" text-anchor="middle" font-size="11" font-weight="400" fill="#ffffff">99.9</text>
<rect x="239.67" y="573.00" width="61.67" height="30.00" fill="#1c9950" stroke="#ffffff" stroke-width="1.5"/>
<text x="270.50" y="592.00" text-anchor="middle" font-size="11" font-weight="400" fill="#ffffff">99.9</text>
<rect x="301.33" y="573.00" width="61.67" height="30.00" fill="#1c9950" stroke="#ffffff" stroke-width="1.5"/>
<text x="332.17" y="592.00" text-anchor="middle" font-size="11" font-weight="400" fill="#ffffff">99.9</text>
<rect x="363.00" y="573.00" width="61.67" height="30.00" fill="#1c9950" stroke="#ffffff" stroke-width="1.5"/>
<text x="393.83" y="592.00" text-anchor="middle" font-size="11" font-weight="400" fill="#ffffff">99.9</text>
<rect x="424.67" y="573.00" width="61.67" height="30.00" fill="#1d9951" stroke="#ffffff" stroke-width="1.5"/>
<text x="455.50" y="592.00" text-anchor="middle" font-size="11" font-weight="400" fill="#ffffff">99.9</text>
<rect x="486.33" y="573.00" width="61.67" height="30.00" fill="#219b51" stroke="#ffffff" stroke-width="1.5"/>
<text x="517.17" y="592.00" text-anchor="middle" font-size="11" font-weight="400" fill="#ffffff">99.8</text>
<rect x="178.00" y="603.00" width="61.67" height="30.00" fill="#209b51" stroke="#ffffff" stroke-width="1.5"/>
<text x="208.83" y="622.00" text-anchor="middle" font-size="11" font-weight="400" fill="#ffffff">99.8</text>
<rect x="239.67" y="603.00" width="61.67" height="30.00" fill="#209b51" stroke="#ffffff" stroke-width="1.5"/>
<text x="270.50" y="622.00" text-anchor="middle" font-size="11" font-weight="400" fill="#ffffff">99.8</text>
<rect x="301.33" y="603.00" width="61.67" height="30.00" fill="#209b51" stroke="#ffffff" stroke-width="1.5"/>
<text x="332.17" y="622.00" text-anchor="middle" font-size="11" font-weight="400" fill="#ffffff">99.8</text>
<rect x="363.00" y="603.00" width="61.67" height="30.00" fill="#209b51" stroke="#ffffff" stroke-width="1.5"/>
<text x="393.83" y="622.00" text-anchor="middle" font-size="11" font-weight="400" fill="#ffffff">99.8</text>
<rect x="424.67" y="603.00" width="61.67" height="30.00" fill="#209b51" stroke="#ffffff" stroke-width="1.5"/>
<text x="455.50" y="622.00" text-anchor="middle" font-size="11" font-weight="400" fill="#ffffff">99.8</text>
<rect x="486.33" y="603.00" width="61.67" height="30.00" fill="#249d52" stroke="#ffffff" stroke-width="1.5"/>
<text x="517.17" y="622.00" text-anchor="middle" font-size="11" font-weight="400" fill="#ffffff">99.6</text>
<rect x="178.00" y="633.00" width="61.67" height="30.00" fill="#249d52" stroke="#ffffff" stroke-width="1.5"/>
<text x="208.83" y="652.00" text-anchor="middle" font-size="11" font-weight="400" fill="#ffffff">99.6</text>
<rect x="239.67" y="633.00" width="61.67" height="30.00" fill="#249d52" stroke="#ffffff" stroke-width="1.5"/>
<text x="270.50" y="652.00" text-anchor="middle" font-size="11" font-weight="400" fill="#ffffff">99.6</text>
<rect x="301.33" y="633.00" width="61.67" height="30.00" fill="#249d52" stroke="#ffffff" stroke-width="1.5"/>
<text x="332.17" y="652.00" text-anchor="middle" font-size="11" font-weight="400" fill="#ffffff">99.6</text>
<rect x="363.00" y="633.00" width="61.67" height="30.00" fill="#249d52" stroke="#ffffff" stroke-width="1.5"/>
<text x="393.83" y="652.00" text-anchor="middle" font-size="11" font-weight="400" fill="#ffffff">99.6</text>
<rect x="424.67" y="633.00" width="61.67" height="30.00" fill="#249d52" stroke="#ffffff" stroke-width="1.5"/>
<text x="455.50" y="652.00" text-anchor="middle" font-size="11" font-weight="400" fill="#ffffff">99.6</text>
<rect x="486.33" y="633.00" width="61.67" height="30.00" fill="#289f53" stroke="#ffffff" stroke-width="1.5"/>
<text x="517.17" y="652.00" text-anchor="middle" font-size="11" font-weight="400" fill="#ffffff">99.5</text>
<rect x="178.00" y="663.00" width="61.67" height="30.00" fill="#34a455" stroke="#ffffff" stroke-width="1.5"/>
<text x="208.83" y="682.00" text-anchor="middle" font-size="11" font-weight="400" fill="#ffffff">99.1</text>
<rect x="239.67" y="663.00" width="61.67" height="30.00" fill="#34a455" stroke="#ffffff" stroke-width="1.5"/>
<text x="270.50" y="682.00" text-anchor="middle" font-size="11" font-weight="400" fill="#ffffff">99.1</text>
<rect x="301.33" y="663.00" width="61.67" height="30.00" fill="#34a455" stroke="#ffffff" stroke-width="1.5"/>
<text x="332.17" y="682.00" text-anchor="middle" font-size="11" font-weight="400" fill="#ffffff">99.1</text>
<rect x="363.00" y="663.00" width="61.67" height="30.00" fill="#34a455" stroke="#ffffff" stroke-width="1.5"/>
<text x="393.83" y="682.00" text-anchor="middle" font-size="11" font-weight="400" fill="#ffffff">99.1</text>
<rect x="424.67" y="663.00" width="61.67" height="30.00" fill="#34a455" stroke="#ffffff" stroke-width="1.5"/>
<text x="455.50" y="682.00" text-anchor="middle" font-size="11" font-weight="400" fill="#ffffff">99.1</text>
<rect x="486.33" y="663.00" width="61.67" height="30.00" fill="#35a555" stroke="#ffffff" stroke-width="1.5"/>
<text x="517.17" y="682.00" text-anchor="middle" font-size="11" font-weight="400" fill="#ffffff">99.0</text>
<rect x="178.00" y="693.00" width="61.67" height="30.00" fill="#54b35b" stroke="#ffffff" stroke-width="1.5"/>
<text x="208.83" y="712.00" text-anchor="middle" font-size="11" font-weight="400" fill="#ffffff">97.9</text>
<rect x="239.67" y="693.00" width="61.67" height="30.00" fill="#54b35b" stroke="#ffffff" stroke-width="1.5"/>
<text x="270.50" y="712.00" text-anchor="middle" font-size="11" font-weight="400" fill="#ffffff">97.9</text>
<rect x="301.33" y="693.00" width="61.67" height="30.00" fill="#54b35b" stroke="#ffffff" stroke-width="1.5"/>
<text x="332.17" y="712.00" text-anchor="middle" font-size="11" font-weight="400" fill="#ffffff">97.9</text>
<rect x="363.00" y="693.00" width="61.67" height="30.00" fill="#54b35b" stroke="#ffffff" stroke-width="1.5"/>
<text x="393.83" y="712.00" text-anchor="middle" font-size="11" font-weight="400" fill="#ffffff">97.9</text>
<rect x="424.67" y="693.00" width="61.67" height="30.00" fill="#54b35b" stroke="#ffffff" stroke-width="1.5"/>
<text x="455.50" y="712.00" text-anchor="middle" font-size="11" font-weight="400" fill="#ffffff">97.9</text>
<rect x="486.33" y="693.00" width="61.67" height="30.00" fill="#55b45b" stroke="#ffffff" stroke-width="1.5"/>
<text x="517.17" y="712.00" text-anchor="middle" font-size="11" font-weight="400" fill="#ffffff">97.9</text>
<rect x="178.00" y="723.00" width="61.67" height="30.00" fill="#fdc076" stroke="#ffffff" stroke-width="1.5"/>
<text x="208.83" y="742.00" text-anchor="middle" font-size="11" font-weight="400" fill="#ffffff">56.6</text>
<rect x="239.67" y="723.00" width="61.67" height="30.00" fill="#fdc076" stroke="#ffffff" stroke-width="1.5"/>
<text x="270.50" y="742.00" text-anchor="middle" font-size="11" font-weight="400" fill="#ffffff">56.6</text>
<rect x="301.33" y="723.00" width="61.67" height="30.00" fill="#fdc076" stroke="#ffffff" stroke-width="1.5"/>
<text x="332.17" y="742.00" text-anchor="middle" font-size="11" font-weight="400" fill="#ffffff">56.6</text>
<rect x="363.00" y="723.00" width="61.67" height="30.00" fill="#fdc076" stroke="#ffffff" stroke-width="1.5"/>
<text x="393.83" y="742.00" text-anchor="middle" font-size="11" font-weight="400" fill="#ffffff">56.6</text>
<rect x="424.67" y="723.00" width="61.67" height="30.00" fill="#fdc076" stroke="#ffffff" stroke-width="1.5"/>
<text x="455.50" y="742.00" text-anchor="middle" font-size="11" font-weight="400" fill="#ffffff">56.6</text>
<rect x="486.33" y="723.00" width="61.67" height="30.00" fill="#fdc076" stroke="#ffffff" stroke-width="1.5"/>
<text x="517.17" y="742.00" text-anchor="middle" font-size="11" font-weight="400" fill="#ffffff">56.6</text>
<rect x="178.00" y="753.00" width="61.67" height="30.00" fill="#ce513f" stroke="#ffffff" stroke-width="1.5"/>
<text x="208.83" y="772.00" text-anchor="middle" font-size="11" font-weight="400" fill="#ffffff">19.0</text>
<rect x="239.67" y="753.00" width="61.67" height="30.00" fill="#ce513f" stroke="#ffffff" stroke-width="1.5"/>
<text x="270.50" y="772.00" text-anchor="middle" font-size="11" font-weight="400" fill="#ffffff">19.0</text>
<rect x="301.33" y="753.00" width="61.67" height="30.00" fill="#ce513f" stroke="#ffffff" stroke-width="1.5"/>
<text x="332.17" y="772.00" text-anchor="middle" font-size="11" font-weight="400" fill="#ffffff">19.0</text>
<rect x="363.00" y="753.00" width="61.67" height="30.00" fill="#ce513f" stroke="#ffffff" stroke-width="1.5"/>
<text x="393.83" y="772.00" text-anchor="middle" font-size="11" font-weight="400" fill="#ffffff">19.0</text>
<rect x="424.67" y="753.00" width="61.67" height="30.00" fill="#ce513f" stroke="#ffffff" stroke-width="1.5"/>
<text x="455.50" y="772.00" text-anchor="middle" font-size="11" font-weight="400" fill="#ffffff">19.0</text>
<rect x="486.33" y="753.00" width="61.67" height="30.00" fill="#ce513f" stroke="#ffffff" stroke-width="1.5"/>
<text x="517.17" y="772.00" text-anchor="middle" font-size="11" font-weight="400" fill="#ffffff">19.0</text>
<rect x="178.00" y="573.00" width="370.00" height="210.00" fill="none" stroke="#9ca3af" stroke-width="1"/>
<text x="715.00" y="525.00" text-anchor="start" font-size="19" font-weight="700" fill="#111827">UNI/WETH</text>
<text x="988.00" y="551.00" text-anchor="middle" font-size="12" font-weight="400" fill="#4b5563">Minimum stale-loss floor (USD)</text>
<text x="833.83" y="565.00" text-anchor="middle" font-size="11" font-weight="400" fill="#4b5563">$0</text>
<text x="895.50" y="565.00" text-anchor="middle" font-size="11" font-weight="400" fill="#4b5563">$0.5</text>
<text x="957.17" y="565.00" text-anchor="middle" font-size="11" font-weight="400" fill="#4b5563">$1</text>
<text x="1018.83" y="565.00" text-anchor="middle" font-size="11" font-weight="400" fill="#4b5563">$5</text>
<text x="1080.50" y="565.00" text-anchor="middle" font-size="11" font-weight="400" fill="#4b5563">$25</text>
<text x="1142.17" y="565.00" text-anchor="middle" font-size="11" font-weight="400" fill="#4b5563">$100</text>
<text x="791.00" y="592.00" text-anchor="end" font-size="11" font-weight="400" fill="#4b5563">0</text>
<text x="791.00" y="622.00" text-anchor="end" font-size="11" font-weight="400" fill="#4b5563">5</text>
<text x="791.00" y="652.00" text-anchor="end" font-size="11" font-weight="400" fill="#4b5563">10</text>
<text x="791.00" y="682.00" text-anchor="end" font-size="11" font-weight="400" fill="#4b5563">25</text>
<text x="791.00" y="712.00" text-anchor="end" font-size="11" font-weight="400" fill="#4b5563">50</text>
<text x="791.00" y="742.00" text-anchor="end" font-size="11" font-weight="400" fill="#4b5563">100</text>
<text x="791.00" y="772.00" text-anchor="end" font-size="11" font-weight="400" fill="#4b5563">200</text>
<text x="731.00" y="678.00" text-anchor="middle" font-size="12" font-weight="400" fill="#4b5563" transform="rotate(-90.00 731.00 678.00)">Trigger threshold (bps)</text>
<rect x="803.00" y="573.00" width="61.67" height="30.00" fill="#1f9a51" stroke="#ffffff" stroke-width="1.5"/>
<text x="833.83" y="592.00" text-anchor="middle" font-size="11" font-weight="400" fill="#ffffff">99.8</text>
<rect x="864.67" y="573.00" width="61.67" height="30.00" fill="#1f9a51" stroke="#ffffff" stroke-width="1.5"/>
<text x="895.50" y="592.00" text-anchor="middle" font-size="11" font-weight="400" fill="#ffffff">99.8</text>
<rect x="926.33" y="573.00" width="61.67" height="30.00" fill="#1f9a51" stroke="#ffffff" stroke-width="1.5"/>
<text x="957.17" y="592.00" text-anchor="middle" font-size="11" font-weight="400" fill="#ffffff">99.8</text>
<rect x="988.00" y="573.00" width="61.67" height="30.00" fill="#219b51" stroke="#ffffff" stroke-width="1.5"/>
<text x="1018.83" y="592.00" text-anchor="middle" font-size="11" font-weight="400" fill="#ffffff">99.8</text>
<rect x="1049.67" y="573.00" width="61.67" height="30.00" fill="#37a655" stroke="#ffffff" stroke-width="1.5"/>
<text x="1080.50" y="592.00" text-anchor="middle" font-size="11" font-weight="400" fill="#ffffff">99.0</text>
<rect x="1111.33" y="573.00" width="61.67" height="30.00" fill="#ceea90" stroke="#ffffff" stroke-width="1.5"/>
<text x="1142.17" y="592.00" text-anchor="middle" font-size="11" font-weight="400" fill="#111827">88.2</text>
<rect x="803.00" y="603.00" width="61.67" height="30.00" fill="#209b51" stroke="#ffffff" stroke-width="1.5"/>
<text x="833.83" y="622.00" text-anchor="middle" font-size="11" font-weight="400" fill="#ffffff">99.8</text>
<rect x="864.67" y="603.00" width="61.67" height="30.00" fill="#209b51" stroke="#ffffff" stroke-width="1.5"/>
<text x="895.50" y="622.00" text-anchor="middle" font-size="11" font-weight="400" fill="#ffffff">99.8</text>
<rect x="926.33" y="603.00" width="61.67" height="30.00" fill="#209b51" stroke="#ffffff" stroke-width="1.5"/>
<text x="957.17" y="622.00" text-anchor="middle" font-size="11" font-weight="400" fill="#ffffff">99.8</text>
<rect x="988.00" y="603.00" width="61.67" height="30.00" fill="#229c52" stroke="#ffffff" stroke-width="1.5"/>
<text x="1018.83" y="622.00" text-anchor="middle" font-size="11" font-weight="400" fill="#ffffff">99.7</text>
<rect x="1049.67" y="603.00" width="61.67" height="30.00" fill="#38a656" stroke="#ffffff" stroke-width="1.5"/>
<text x="1080.50" y="622.00" text-anchor="middle" font-size="11" font-weight="400" fill="#ffffff">98.9</text>
<rect x="1111.33" y="603.00" width="61.67" height="30.00" fill="#ceea91" stroke="#ffffff" stroke-width="1.5"/>
<text x="1142.17" y="622.00" text-anchor="middle" font-size="11" font-weight="400" fill="#111827">88.2</text>
<rect x="803.00" y="633.00" width="61.67" height="30.00" fill="#269e52" stroke="#ffffff" stroke-width="1.5"/>
<text x="833.83" y="652.00" text-anchor="middle" font-size="11" font-weight="400" fill="#ffffff">99.6</text>
<rect x="864.67" y="633.00" width="61.67" height="30.00" fill="#269e52" stroke="#ffffff" stroke-width="1.5"/>
<text x="895.50" y="652.00" text-anchor="middle" font-size="11" font-weight="400" fill="#ffffff">99.6</text>
<rect x="926.33" y="633.00" width="61.67" height="30.00" fill="#269e52" stroke="#ffffff" stroke-width="1.5"/>
<text x="957.17" y="652.00" text-anchor="middle" font-size="11" font-weight="400" fill="#ffffff">99.6</text>
<rect x="988.00" y="633.00" width="61.67" height="30.00" fill="#279e52" stroke="#ffffff" stroke-width="1.5"/>
<text x="1018.83" y="652.00" text-anchor="middle" font-size="11" font-weight="400" fill="#ffffff">99.5</text>
<rect x="1049.67" y="633.00" width="61.67" height="30.00" fill="#3ca856" stroke="#ffffff" stroke-width="1.5"/>
<text x="1080.50" y="652.00" text-anchor="middle" font-size="11" font-weight="400" fill="#ffffff">98.8</text>
<rect x="1111.33" y="633.00" width="61.67" height="30.00" fill="#cfeb91" stroke="#ffffff" stroke-width="1.5"/>
<text x="1142.17" y="652.00" text-anchor="middle" font-size="11" font-weight="400" fill="#111827">88.1</text>
<rect x="803.00" y="663.00" width="61.67" height="30.00" fill="#49ae59" stroke="#ffffff" stroke-width="1.5"/>
<text x="833.83" y="682.00" text-anchor="middle" font-size="11" font-weight="400" fill="#ffffff">98.3</text>
<rect x="864.67" y="663.00" width="61.67" height="30.00" fill="#49ae59" stroke="#ffffff" stroke-width="1.5"/>
<text x="895.50" y="682.00" text-anchor="middle" font-size="11" font-weight="400" fill="#ffffff">98.3</text>
<rect x="926.33" y="663.00" width="61.67" height="30.00" fill="#49ae59" stroke="#ffffff" stroke-width="1.5"/>
<text x="957.17" y="682.00" text-anchor="middle" font-size="11" font-weight="400" fill="#ffffff">98.3</text>
<rect x="988.00" y="663.00" width="61.67" height="30.00" fill="#49ae59" stroke="#ffffff" stroke-width="1.5"/>
<text x="1018.83" y="682.00" text-anchor="middle" font-size="11" font-weight="400" fill="#ffffff">98.3</text>
<rect x="1049.67" y="663.00" width="61.67" height="30.00" fill="#56b45b" stroke="#ffffff" stroke-width="1.5"/>
<text x="1080.50" y="682.00" text-anchor="middle" font-size="11" font-weight="400" fill="#ffffff">97.9</text>
<rect x="1111.33" y="663.00" width="61.67" height="30.00" fill="#d1ec93" stroke="#ffffff" stroke-width="1.5"/>
<text x="1142.17" y="682.00" text-anchor="middle" font-size="11" font-weight="400" fill="#111827">87.7</text>
<rect x="803.00" y="693.00" width="61.67" height="30.00" fill="#acdc70" stroke="#ffffff" stroke-width="1.5"/>
<text x="833.83" y="712.00" text-anchor="middle" font-size="11" font-weight="400" fill="#ffffff">94.0</text>
<rect x="864.67" y="693.00" width="61.67" height="30.00" fill="#acdc70" stroke="#ffffff" stroke-width="1.5"/>
<text x="895.50" y="712.00" text-anchor="middle" font-size="11" font-weight="400" fill="#ffffff">94.0</text>
<rect x="926.33" y="693.00" width="61.67" height="30.00" fill="#acdc70" stroke="#ffffff" stroke-width="1.5"/>
<text x="957.17" y="712.00" text-anchor="middle" font-size="11" font-weight="400" fill="#ffffff">94.0</text>
<rect x="988.00" y="693.00" width="61.67" height="30.00" fill="#acdc70" stroke="#ffffff" stroke-width="1.5"/>
<text x="1018.83" y="712.00" text-anchor="middle" font-size="11" font-weight="400" fill="#ffffff">94.0</text>
<rect x="1049.67" y="693.00" width="61.67" height="30.00" fill="#aedc71" stroke="#ffffff" stroke-width="1.5"/>
<text x="1080.50" y="712.00" text-anchor="middle" font-size="11" font-weight="400" fill="#ffffff">93.7</text>
<rect x="1111.33" y="693.00" width="61.67" height="30.00" fill="#e1f2a2" stroke="#ffffff" stroke-width="1.5"/>
<text x="1142.17" y="712.00" text-anchor="middle" font-size="11" font-weight="400" fill="#111827">85.1</text>
<rect x="803.00" y="723.00" width="61.67" height="30.00" fill="#fecf87" stroke="#ffffff" stroke-width="1.5"/>
<text x="833.83" y="742.00" text-anchor="middle" font-size="11" font-weight="400" fill="#ffffff">62.2</text>
<rect x="864.67" y="723.00" width="61.67" height="30.00" fill="#fecf87" stroke="#ffffff" stroke-width="1.5"/>
<text x="895.50" y="742.00" text-anchor="middle" font-size="11" font-weight="400" fill="#ffffff">62.2</text>
<rect x="926.33" y="723.00" width="61.67" height="30.00" fill="#fecf87" stroke="#ffffff" stroke-width="1.5"/>
<text x="957.17" y="742.00" text-anchor="middle" font-size="11" font-weight="400" fill="#ffffff">62.2</text>
<rect x="988.00" y="723.00" width="61.67" height="30.00" fill="#fecf87" stroke="#ffffff" stroke-width="1.5"/>
<text x="1018.83" y="742.00" text-anchor="middle" font-size="11" font-weight="400" fill="#ffffff">62.2</text>
<rect x="1049.67" y="723.00" width="61.67" height="30.00" fill="#fecf87" stroke="#ffffff" stroke-width="1.5"/>
<text x="1080.50" y="742.00" text-anchor="middle" font-size="11" font-weight="400" fill="#ffffff">62.2</text>
<rect x="1111.33" y="723.00" width="61.67" height="30.00" fill="#fecc84" stroke="#ffffff" stroke-width="1.5"/>
<text x="1142.17" y="742.00" text-anchor="middle" font-size="11" font-weight="400" fill="#ffffff">61.2</text>
<rect x="803.00" y="753.00" width="61.67" height="30.00" fill="#d35942" stroke="#ffffff" stroke-width="1.5"/>
<text x="833.83" y="772.00" text-anchor="middle" font-size="11" font-weight="400" fill="#ffffff">21.7</text>
<rect x="864.67" y="753.00" width="61.67" height="30.00" fill="#d35942" stroke="#ffffff" stroke-width="1.5"/>
<text x="895.50" y="772.00" text-anchor="middle" font-size="11" font-weight="400" fill="#ffffff">21.7</text>
<rect x="926.33" y="753.00" width="61.67" height="30.00" fill="#d35942" stroke="#ffffff" stroke-width="1.5"/>
<text x="957.17" y="772.00" text-anchor="middle" font-size="11" font-weight="400" fill="#ffffff">21.7</text>
<rect x="988.00" y="753.00" width="61.67" height="30.00" fill="#d35942" stroke="#ffffff" stroke-width="1.5"/>
<text x="1018.83" y="772.00" text-anchor="middle" font-size="11" font-weight="400" fill="#ffffff">21.7</text>
<rect x="1049.67" y="753.00" width="61.67" height="30.00" fill="#d35942" stroke="#ffffff" stroke-width="1.5"/>
<text x="1080.50" y="772.00" text-anchor="middle" font-size="11" font-weight="400" fill="#ffffff">21.7</text>
<rect x="1111.33" y="753.00" width="61.67" height="30.00" fill="#d35942" stroke="#ffffff" stroke-width="1.5"/>
<text x="1142.17" y="772.00" text-anchor="middle" font-size="11" font-weight="400" fill="#ffffff">21.7</text>
<rect x="803.00" y="573.00" width="370.00" height="210.00" fill="none" stroke="#9ca3af" stroke-width="1"/>
<rect x="1162" y="160" width="26" height="540" fill="url(#recaptureGradient)" stroke="#d1d5db"/>
<line x1="1188" y1="160.00" x2="1196" y2="160.00" stroke="#9ca3af"/>
<text x="1202.00" y="164.00" text-anchor="start" font-size="12" font-weight="400" fill="#4b5563">100%</text>
<line x1="1188" y1="295.00" x2="1196" y2="295.00" stroke="#9ca3af"/>
<text x="1202.00" y="299.00" text-anchor="start" font-size="12" font-weight="400" fill="#4b5563">75%</text>
<line x1="1188" y1="430.00" x2="1196" y2="430.00" stroke="#9ca3af"/>
<text x="1202.00" y="434.00" text-anchor="start" font-size="12" font-weight="400" fill="#4b5563">50%</text>
<line x1="1188" y1="565.00" x2="1196" y2="565.00" stroke="#9ca3af"/>
<text x="1202.00" y="569.00" text-anchor="start" font-size="12" font-weight="400" fill="#4b5563">25%</text>
<line x1="1188" y1="700.00" x2="1196" y2="700.00" stroke="#9ca3af"/>
<text x="1202.00" y="704.00" text-anchor="start" font-size="12" font-weight="400" fill="#4b5563">0%</text>
<text x="1160.00" y="142.00" text-anchor="start" font-size="13" font-weight="700" fill="#4b5563">Recapture</text>
</svg>