<svg xmlns="http://www.w3.org/2000/svg" width="1040" height="610" viewBox="0 0 1040 610" role="img">
<rect width="100%" height="100%" fill="#ffffff"/>
<style>text{font-family:Arial, Helvetica, sans-serif;}</style>
<text x="40.00" y="48.00" text-anchor="start" font-size="26" font-weight="700" fill="#111827">Native quote floor vs USD-normalized floor</text>
<text x="40.00" y="76.00" text-anchor="start" font-size="15" font-weight="400" fill="#4b5563">Recapture at zero volatility threshold and a nominal 0.5 floor. Native units under-trigger WETH-quoted pools.</text>
<line x1="90" y1="480.00" x2="950" y2="480.00" stroke="#e5e7eb"/>
<text x="78.00" y="484.00" text-anchor="end" font-size="12" font-weight="400" fill="#4b5563">0%</text>
<line x1="90" y1="382.50" x2="950" y2="382.50" stroke="#e5e7eb"/>
<text x="78.00" y="386.50" text-anchor="end" font-size="12" font-weight="400" fill="#4b5563">25%</text>
<line x1="90" y1="285.00" x2="950" y2="285.00" stroke="#e5e7eb"/>
<text x="78.00" y="289.00" text-anchor="end" font-size="12" font-weight="400" fill="#4b5563">50%</text>
<line x1="90" y1="187.50" x2="950" y2="187.50" stroke="#e5e7eb"/>
<text x="78.00" y="191.50" text-anchor="end" font-size="12" font-weight="400" fill="#4b5563">75%</text>
<line x1="90" y1="90.00" x2="950" y2="90.00" stroke="#e5e7eb"/>
<text x="78.00" y="94.00" text-anchor="end" font-size="12" font-weight="400" fill="#4b5563">100%</text>
<line x1="90" y1="90" x2="90" y2="480" stroke="#9ca3af"/>
<line x1="90" y1="480" x2="950" y2="480" stroke="#9ca3af"/>
<rect x="135.50" y="121.89" width="54" height="358.11" rx="2" fill="#2563eb"/>
<text x="162.50" y="113.89" text-anchor="middle" font-size="12" font-weight="700" fill="#111827">91.8%</text>
<rect x="205.50" y="121.89" width="54" height="358.11" rx="2" fill="#059669"/>
<text x="232.50" y="113.89" text-anchor="middle" font-size="12" font-weight="700" fill="#111827">91.8%</text>
<text x="197.50" y="514.00" text-anchor="middle" font-size="13" font-weight="700" fill="#111827">WETH/USDC</text>
<rect x="350.50" y="120.97" width="54" height="359.03" rx="2" fill="#2563eb"/>
<text x="377.50" y="112.97" text-anchor="middle" font-size="12" font-weight="700" fill="#111827">92.1%</text>
<rect x="420.50" y="120.97" width="54" height="359.03" rx="2" fill="#059669"/>
<text x="447.50" y="112.97" text-anchor="middle" font-size="12" font-weight="700" fill="#111827">92.1%</text>
<text x="412.50" y="514.00" text-anchor="middle" font-size="13" font-weight="700" fill="#111827">WBTC/USDC</text>
<rect x="565.50" y="194.74" width="54" height="285.26" rx="2" fill="#2563eb"/>
<text x="592.50" y="186.74" text-anchor="middle" font-size="12" font-weight="700" fill="#111827">73.1%</text>
<rect x="635.50" y="90.32" width="54" height="389.68" rx="2" fill="#059669"/>
<text x="662.50" y="82.32" text-anchor="middle" font-size="12" font-weight="700" fill="#111827">99.9%</text>
<text x="627.50" y="514.00" text-anchor="middle" font-size="13" font-weight="700" fill="#111827">LINK/WETH</text>
<rect x="780.50" y="341.18" width="54" height="138.82" rx="2" fill="#2563eb"/>
<text x="807.50" y="333.18" text-anchor="middle" font-size="12" font-weight="700" fill="#111827">35.6%</text>
<rect x="850.50" y="90.66" width="54" height="389.34" rx="2" fill="#059669"/>
<text x="877.50" y="82.66" text-anchor="middle" font-size="12" font-weight="700" fill="#111827">99.8%</text>
<text x="842.50" y="514.00" text-anchor="middle" font-size="13" font-weight="700" fill="#111827">UNI/WETH</text>
<rect x="630" y="528" width="18" height="18" rx="2" fill="#2563eb"/>
<text x="656.00" y="542.00" text-anchor="start" font-size="13" font-weight="400" fill="#4b5563">Native 0.5 quote</text>
<rect x="835" y="528" width="18" height="18" rx="2" fill="#059669"/>
<text x="861.00" y="542.00" text-anchor="start" font-size="13" font-weight="400" fill="#4b5563">USD $0.50</text>
<text x="34.00" y="285.00" text-anchor="middle" font-size="13" font-weight="400" fill="#4b5563" transform="rotate(-90.00 34.00 285.00)">LVR recaptured</text>
</svg>