<svg xmlns="http://www.w3.org/2000/svg" width="1120" height="650" viewBox="0 0 1120 650" role="img">
<rect width="100%" height="100%" fill="#ffffff"/>
<style>text{font-family:Arial, Helvetica, sans-serif;}</style>
<text x="40.00" y="48.00" text-anchor="start" font-size="26" font-weight="700" fill="#111827">24-hour stress LP loss by policy</text>
<text x="40.00" y="76.00" text-anchor="start" font-size="15" font-weight="400" fill="#4b5563">USD-normalized losses on October 10, 2025 stress window; y-axis is log scale.</text>
<line x1="110" y1="497.00" x2="1000" y2="497.00" stroke="#e5e7eb"/>
<text x="98.00" y="501.00" text-anchor="end" font-size="12" font-weight="400" fill="#4b5563">$0.01</text>
<line x1="110" y1="407.00" x2="1000" y2="407.00" stroke="#e5e7eb"/>
<text x="98.00" y="411.00" text-anchor="end" font-size="12" font-weight="400" fill="#4b5563">$1</text>
<line x1="110" y1="317.00" x2="1000" y2="317.00" stroke="#e5e7eb"/>
<text x="98.00" y="321.00" text-anchor="end" font-size="12" font-weight="400" fill="#4b5563">$100</text>
<line x1="110" y1="227.00" x2="1000" y2="227.00" stroke="#e5e7eb"/>
<text x="98.00" y="231.00" text-anchor="end" font-size="12" font-weight="400" fill="#4b5563">$10K</text>
<line x1="110" y1="137.00" x2="1000" y2="137.00" stroke="#e5e7eb"/>
<text x="98.00" y="141.00" text-anchor="end" font-size="12" font-weight="400" fill="#4b5563">$1M</text>
<line x1="110" y1="92.00" x2="1000" y2="92.00" stroke="#e5e7eb"/>
<text x="98.00" y="96.00" text-anchor="end" font-size="12" font-weight="400" fill="#4b5563">$10M</text>
<line x1="110" y1="92" x2="110" y2="497" stroke="#9ca3af"/>
<line x1="110" y1="497" x2="1000" y2="497" stroke="#9ca3af"/>
<rect x="146.25" y="140.62" width="42" height="356.38" rx="2" fill="#6b7280"/>
<text x="167.25" y="133.62" text-anchor="middle" font-size="10" font-weight="400" fill="#111827">$831K</text>
<rect x="200.25" y="149.36" width="42" height="347.64" rx="2" fill="#d97706"/>
<text x="221.25" y="142.36" text-anchor="middle" font-size="10" font-weight="400" fill="#111827">$531K</text>
<rect x="254.25" y="455.62" width="42" height="41.38" rx="2" fill="#047857"/>
<text x="275.25" y="448.62" text-anchor="middle" font-size="10" font-weight="400" fill="#111827">$0.083</text>
<text x="221.25" y="531.00" text-anchor="middle" font-size="13" font-weight="700" fill="#111827">WETH/USDC</text>
<rect x="368.75" y="212.10" width="42" height="284.90" rx="2" fill="#6b7280"/>
<text x="389.75" y="205.10" text-anchor="middle" font-size="10" font-weight="400" fill="#111827">$21.4K</text>
<rect x="422.75" y="225.52" width="42" height="271.48" rx="2" fill="#d97706"/>
<text x="443.75" y="218.52" text-anchor="middle" font-size="10" font-weight="400" fill="#111827">$10.8K</text>
<rect x="476.75" y="456.37" width="42" height="40.63" rx="2" fill="#047857"/>
<text x="497.75" y="449.37" text-anchor="middle" font-size="10" font-weight="400" fill="#111827">$0.08</text>
<text x="443.75" y="531.00" text-anchor="middle" font-size="13" font-weight="700" fill="#111827">WBTC/USDC</text>
<rect x="591.25" y="100.71" width="42" height="396.29" rx="2" fill="#6b7280"/>
<text x="612.25" y="93.71" text-anchor="middle" font-size="10" font-weight="400" fill="#111827">$6.4M</text>
<rect x="645.25" y="103.72" width="42" height="393.28" rx="2" fill="#d97706"/>
<text x="666.25" y="96.72" text-anchor="middle" font-size="10" font-weight="400" fill="#111827">$5.5M</text>
<rect x="699.25" y="169.68" width="42" height="327.32" rx="2" fill="#047857"/>
<text x="720.25" y="162.68" text-anchor="middle" font-size="10" font-weight="400" fill="#111827">$188K</text>
<text x="666.25" y="531.00" text-anchor="middle" font-size="13" font-weight="700" fill="#111827">LINK/WETH</text>
<rect x="813.75" y="164.56" width="42" height="332.44" rx="2" fill="#6b7280"/>
<text x="834.75" y="157.56" text-anchor="middle" font-size="10" font-weight="400" fill="#111827">$244K</text>
<rect x="867.75" y="167.32" width="42" height="329.68" rx="2" fill="#d97706"/>
<text x="888.75" y="160.32" text-anchor="middle" font-size="10" font-weight="400" fill="#111827">$212K</text>
<rect x="921.75" y="197.50" width="42" height="299.50" rx="2" fill="#047857"/>
<text x="942.75" y="190.50" text-anchor="middle" font-size="10" font-weight="400" fill="#111827">$45.3K</text>
<text x="888.75" y="531.00" text-anchor="middle" font-size="13" font-weight="700" fill="#111827">UNI/WETH</text>
<rect x="580" y="566" width="18" height="18" rx="2" fill="#6b7280"/>
<text x="606.00" y="580.00" text-anchor="start" font-size="13" font-weight="400" fill="#4b5563">Unprotected</text>
<rect x="785" y="566" width="18" height="18" rx="2" fill="#d97706"/>
<text x="811.00" y="580.00" text-anchor="start" font-size="13" font-weight="400" fill="#4b5563">Fixed fee</text>
<rect x="935" y="566" width="18" height="18" rx="2" fill="#047857"/>
<text x="961.00" y="580.00" text-anchor="start" font-size="13" font-weight="400" fill="#4b5563">Auction</text>
<text x="36.00" y="294.50" text-anchor="middle" font-size="13" font-weight="400" fill="#4b5563" transform="rotate(-90.00 36.00 294.50)">LP loss, USD log scale</text>
</svg>